<svg xmlns="http://www.w3.org/2000/svg" x="0px" y="0px" viewBox="0 0 864 864" enable-background="new 0 0 864 864"><style>.ls0{fill:#0cf}.fs0{fill:#231f20}</style><g><path class="fs0" d="M221.7,74.7v491.8c0,39.2,17.2,76,47.2,101.2l160.6,134.8L590,667.8c30-25.2,47.2-62.1,47.2-101.2V74.7H221.7z M614.7,211.3H244.2v-47h370.5V211.3z M614.7,144.2H244.2v-47h370.5V144.2z"/></g><g><path class="ls0" d="M403.2,245.4v33v64.8v35.9l-37.5,16.6l-29,12.8l29,12.8l37.5,16.6v35.9v68.9v30.2V618v83.5v31.3l-19-15.9V662	v-23.3v-45.1v-30.2V453.1v-9.1l-8.3-3.7l-49.9-22l-5.7-2.5l-5.7,2.5l-29.1,12.8l-8.3,3.7v9.1v122.7c0,7.2,1,14.4,3,21.3l-17.5,7.7	c-3-9.4-4.5-19.2-4.5-29.1V278.4v-33h33h79H403.2 M277.2,420.3l19.7-8.7l29.1-12.8l49.9-22l8.3-3.7V364v-85.6v-14h-14h-79h-14v14	v94.7v25.7V420.3 M417.2,231.4h-47h-79h-47v47v288.1c0,16.7,3.8,33,10.9,47.7l43.1-19c-4.5-8.8-7-18.6-7-28.7V443.9l29.1-12.8	l49.9,22v110.4v30.2v45.1V662v61.4l47,39.4v-61.4V618v-45.1v-30.2v-68.9v-45l-45.9-20.2l45.9-20.2v-45.1v-64.8V231.4L417.2,231.4z M291.2,398.8v-25.7v-94.7h79V364l-49.9,22L291.2,398.8L291.2,398.8z"/><path class="ls0" d="M600.8,245.4v33v57.1v45.1v186c0,9.8-1.6,19.7-4.5,29.1l-17.5-7.7c2-6.9,3-14.1,3-21.3V401.3v-21.5l-19.7,8.7	l-79,34.9l-8.3,3.7v9.1v280.7l-19,15.9V245.4h19v33v112.7v21.5l19.7-8.7l79-34.9l8.3-3.7v-9.1v-77.8v-33H600.8 M614.8,231.4h-47v47	v77.8l-79,34.9V278.4v-47h-47c0,14.9,0,508,0,531.4l47-39.4c0-9.4,0-275.6,0-287.2l79-34.9v165.2c0,10.1-2.4,20-7,28.7l43,19	c7.1-14.7,10.9-31,10.9-47.7v-186v-45.1v-57.1V231.4L614.8,231.4z"/></g></svg>